<?xml version="1.0" encoding="utf-8"?>
<svg viewBox="0 0 500 500" xmlns="http://www.w3.org/2000/svg" xmlns:bx="https://boxy-svg.com">
  <title>medical-bottle-flat</title>
  <g transform="matrix(0.396825, 0, 0, 0.396825, -62.317406, -45.154327)" bx:origin="0 0">
    <path d="M 278.36 113.789 L 202.92 113.789 C 198.258 113.8 194.481 117.577 194.47 122.239 L 194.47 128.709 C 194.481 133.371 198.258 137.148 202.92 137.159 L 218.92 137.159 L 218.92 142.789 L 262.27 142.789 L 262.27 137.189 L 278.27 137.189 C 282.928 137.172 286.699 133.397 286.71 128.739 L 286.71 122.269 C 286.716 117.634 282.995 113.855 278.36 113.789 Z" style="fill: rgb(0, 0, 255); stroke: rgb(0, 0, 255);"/>
    <path d="M 307.35 177.719 L 267.1 177.719 L 267.1 167.579 L 269.92 167.579 C 274.574 167.563 278.343 163.793 278.36 159.139 L 278.36 155.199 C 278.343 150.545 274.574 146.775 269.92 146.759 L 211.36 146.759 C 206.705 146.775 202.936 150.545 202.92 155.199 L 202.92 159.139 C 202.936 163.793 206.705 167.563 211.36 167.579 L 214.17 167.579 L 214.17 177.719 L 173.93 177.719 C 164.613 177.746 157.067 185.292 157.04 194.609 L 157.04 348.869 C 157.051 358.197 164.602 365.761 173.93 365.789 L 307.35 365.789 C 316.653 365.729 324.18 358.202 324.24 348.899 L 324.24 194.609 C 324.212 185.292 316.667 177.746 307.35 177.719 Z" style="fill: rgb(0, 0, 255); stroke: rgb(0, 0, 255);"/>
  </g>
  <path enable-background="new    " d="M 33.15 45.337 C 24.878 45.337 18.15 52.065 18.15 60.337 C 18.15 68.609 24.878 75.337 33.15 75.337 C 41.422 75.337 48.15 68.609 48.15 60.337 C 48.15 52.065 41.422 45.337 33.15 45.337 Z M 44.978 60.337 C 44.978 63.074 44.042 65.598 42.475 67.604 L 26.276 50.717 C 28.214 49.328 30.588 48.509 33.15 48.509 C 39.672 48.509 44.978 53.815 44.978 60.337 Z M 21.322 60.337 C 21.322 57.518 22.314 54.926 23.966 52.892 L 40.208 69.823 C 38.237 71.293 35.794 72.165 33.15 72.165 C 26.628 72.165 21.322 66.859 21.322 60.337 Z" style="stroke: rgb(255, 255, 255); fill: rgb(255, 255, 255); stroke-width: 2px;" bx:origin="-0.655867 -1.644567"/>
</svg>