<?xml version="1.0" encoding="utf-8"?>
<svg viewBox="0 0 100 100" xmlns="http://www.w3.org/2000/svg" xmlns:bx="https://boxy-svg.com">
  <defs>
    <view id="view-1">
      <title>View 1</title>
    </view>
  </defs>
  <g transform="matrix(-0.208129, 0, 0, 0.208129, 100.007401, -0.000005)"/>
  <g transform="matrix(-0.208129, 0, 0, 0.208129, 100.007401, -0.000005)"/>
  <g transform="matrix(-0.208129, 0, 0, 0.208129, 100.007401, -0.000005)"/>
  <g transform="matrix(-0.208129, 0, 0, 0.208129, 100.007401, -0.000005)"/>
  <g transform="matrix(-0.208129, 0, 0, 0.208129, 100.007401, -0.000005)"/>
  <g transform="matrix(-0.208129, 0, 0, 0.208129, 100.007401, -0.000005)"/>
  <g transform="matrix(-0.208129, 0, 0, 0.208129, 100.007401, -0.000005)"/>
  <g transform="matrix(-0.208129, 0, 0, 0.208129, 100.007401, -0.000005)"/>
  <g transform="matrix(-0.208129, 0, 0, 0.208129, 100.007401, -0.000005)"/>
  <g transform="matrix(-0.208129, 0, 0, 0.208129, 100.007401, -0.000005)"/>
  <g transform="matrix(-0.208129, 0, 0, 0.208129, 100.007401, -0.000005)"/>
  <g transform="matrix(-0.208129, 0, 0, 0.208129, 100.007401, -0.000005)"/>
  <g transform="matrix(-0.208129, 0, 0, 0.208129, 100.007401, -0.000005)"/>
  <g transform="matrix(-0.208129, 0, 0, 0.208129, 100.007401, -0.000005)"/>
  <g transform="matrix(-0.208129, 0, 0, 0.208129, 100.007401, -0.000005)"/>
  <path d="M 408.8 98.4 L 428.599 128.601 L 458.8 148.4 L 428.599 168.199 L 408.8 198.4 L 389.001 168.199 L 358.8 148.4 L 389.001 128.601 Z" style="fill: rgb(46, 96, 17); stroke-linecap: round;" transform="matrix(-1, -0.000077, -0.000077, 1, 458.815276, -98.364669)" bx:shape="star 408.8 148.4 50 50 0.56 4 1@7e2a0660"/>
  <path d="M 94.578 60.073 m -10 0 a 10 10 0 1 0 20 0 a 10 10 0 1 0 -20 0 Z M 94.578 60.073 m -5.999 0 a 5.999 5.999 0 0 1 11.998 0 a 5.999 5.999 0 0 1 -11.998 0 Z" style="fill: rgb(112, 190, 66);" transform="matrix(-1, 0.00004, 0.00004, 1, 144.583191, -10.076787)" bx:shape="ring 94.578 60.073 5.999 5.999 10 10 1@4a57cb49" bx:origin="-0.00004 0.000003"/>
  <path d="M -59.694 -87.691 H -46.694 L -46.694 -95.928 L -34.694 -84.946 L -46.694 -73.963 L -46.694 -82.2 H -59.694 V -87.691 Z" style="fill: rgb(112, 190, 66);" transform="matrix(-1, 0.000079, 0.000079, 1, -17.686457, 134.932708)" bx:shape="arrow -59.694 -95.928 25 21.965 5.491 12 0 1@d7437592" bx:origin="0.000087 -0.010637"/>
  <path d="M -59.694 -87.691 H -46.694 L -46.694 -95.928 L -34.694 -84.946 L -46.694 -73.963 L -46.694 -82.2 H -59.694 V -87.691 Z" style="fill: rgb(112, 190, 66);" transform="matrix(1, -0.000079, -0.000079, -1, 117.688125, -34.965728)" bx:shape="arrow -59.694 -95.928 25 21.965 5.491 12 0 1@d7437592"/>
  <path d="M 59.694 104.165 H 72.694 L 72.694 95.928 L 84.694 106.911 L 72.694 117.893 L 72.694 109.656 H 59.694 V 104.165 Z" style="fill: rgb(112, 190, 66);" transform="matrix(-0.000079, -1, -1, 0.000079, 156.899657, 101.686421)" bx:shape="arrow 59.694 95.928 25 21.965 5.491 12 0 1@3a5585e7" bx:origin="0.504149 -0.005275"/>
  <path d="M 59.694 104.165 H 72.694 L 72.694 95.928 L 84.694 106.911 L 72.694 117.893 L 72.694 109.656 H 59.694 V 104.165 Z" style="fill: rgb(112, 190, 66);" transform="matrix(0.000079, 1, 1, -0.000079, -56.892302, -1.68468)" bx:shape="arrow 59.694 95.928 25 21.965 5.491 12 0 1@3a5585e7" bx:origin="-0.00007 -0.001842"/>
</svg>