<?xml version="1.0" encoding="utf-8"?>
<svg version="1.1" id="Capa_1" x="0px" y="0px" viewBox="0 0 0 0" style="enable-background:new 0 0 297 297;" xmlns="http://www.w3.org/2000/svg" xmlns:bx="https://boxy-svg.com">
  <g>
    <path d="M 79.461 124.748 L 76.468 124.748 C 77.785 122.823 81.922 115.645 76.101 108.461 C 69.367 100.148 55.968 75.255 62.301 58.586 L 62.795 58.586 C 65.026 58.586 66.667 56.777 66.667 54.546 L 66.667 54.041 C 66.667 51.809 65.026 50 62.795 50 L 62.176 50 C 67.69 44.714 71.128 37.281 71.128 29.041 C 71.128 13.002 58.126 0 42.088 0 C 26.049 0 13.047 13.002 13.047 29.041 C 13.047 37.281 16.486 44.714 21.999 50 L 20.876 50 C 18.644 50 16.667 51.809 16.667 54.041 L 16.667 54.546 C 16.667 56.777 18.644 58.586 20.876 58.586 L 21.875 58.586 C 28.208 75.255 14.809 100.148 8.075 108.461 C 2.255 115.645 6.391 122.823 7.708 124.748 L 4.209 124.748 C 1.978 124.748 0 126.557 0 128.788 L 0 137.879 C 0 140.11 1.978 141.919 4.209 141.919 L 4.546 141.919 L 4.546 150 L 79.293 150 L 79.293 141.919 C 81.818 141.919 83.334 140.11 83.334 137.879 L 83.334 128.788 C 83.334 126.557 81.693 124.748 79.461 124.748 Z" style="fill: rgb(255, 255, 255);" bx:origin="0 0"/>
  </g>
  <g/>
  <g/>
  <g/>
  <g/>
  <g/>
  <g/>
  <g/>
  <g/>
  <g/>
  <g/>
  <g/>
  <g/>
  <g/>
  <g/>
  <g/>
</svg>