<?xml version="1.0" encoding="utf-8"?>
<svg xmlns="http://www.w3.org/2000/svg">
  <g transform="matrix(0.222745, 0, 0, 0.222745, 672.977283, 285.177292)">
    <g>
      <path d="M256,0L31.528,112.236v287.528L256,512l224.472-112.236V112.236L256,0z M234.277,452.564L74.974,372.913V160.81 l159.303,79.651V452.564z M101.826,125.662L256,48.576l154.174,77.087L256,202.749L101.826,125.662z M437.026,372.913 l-159.303,79.651V240.461l159.303-79.651V372.913z" style="fill: rgb(255, 0, 0);"/>
      <path d="M256,0L31.528,112.236v287.528L256,512l224.472-112.236V112.236L256,0z M234.277,452.564L74.974,372.913V160.81 l159.303,79.651V452.564z M101.826,125.662L256,48.576l154.174,77.087L256,202.749L101.826,125.662z M437.026,372.913 l-159.303,79.651V240.461l159.303-79.651V372.913z" style="fill: rgb(255, 0, 0);" transform="matrix(1, 0, 0, 1, -0.000045, -0.000019)"/>
      <path d="M 256 0.102 L 31.528 112.338 L 31.528 399.866 L 256 512.102 L 480.472 399.866 L 480.472 112.338 L 256 0.102 Z M 234.277 452.666 L 261.735 229.353 L 74.974 160.912 L 234.277 240.563 L 234.277 452.666 Z M 101.826 125.764 L 259.591 217.481 L 410.174 125.765 L 256 202.851 L 101.826 125.764 Z M 261.04 225.761 L 277.723 452.666 L 277.723 240.563 L 437.026 160.912 L 261.04 225.761 Z" style="fill-opacity: 0.75; fill: rgb(0, 119, 255);"/>
    </g>
  </g>
  <g transform="matrix(0.208129, 0, 0, 0.208129, 679.999983, 285.177292)"/>
  <g transform="matrix(0.208129, 0, 0, 0.208129, 679.999983, 285.177292)"/>
  <g transform="matrix(0.208129, 0, 0, 0.208129, 679.999983, 285.177292)"/>
  <g transform="matrix(0.208129, 0, 0, 0.208129, 679.999983, 285.177292)"/>
  <g transform="matrix(0.208129, 0, 0, 0.208129, 679.999983, 285.177292)"/>
  <g transform="matrix(0.208129, 0, 0, 0.208129, 679.999983, 285.177292)"/>
  <g transform="matrix(0.208129, 0, 0, 0.208129, 679.999983, 285.177292)"/>
  <g transform="matrix(0.208129, 0, 0, 0.208129, 679.999983, 285.177292)"/>
  <g transform="matrix(0.208129, 0, 0, 0.208129, 679.999983, 285.177292)"/>
  <g transform="matrix(0.208129, 0, 0, 0.208129, 679.999983, 285.177292)"/>
  <g transform="matrix(0.208129, 0, 0, 0.208129, 679.999983, 285.177292)"/>
  <g transform="matrix(0.208129, 0, 0, 0.208129, 679.999983, 285.177292)"/>
  <g transform="matrix(0.208129, 0, 0, 0.208129, 679.999983, 285.177292)"/>
  <g transform="matrix(0.208129, 0, 0, 0.208129, 679.999983, 285.177292)"/>
  <g transform="matrix(0.208129, 0, 0, 0.208129, 679.999983, 285.177292)"/>
</svg>