<?xml version="1.0" encoding="utf-8"?>
<svg viewBox="0 0 100 114" xmlns="http://www.w3.org/2000/svg">
  <defs>
    <view id="view-1">
      <title>View 1</title>
    </view>
  </defs>
  <g transform="matrix(0.222745, 0, 0, 0.222745, -7.022705, 0)">
    <g>
      <path d="M256,0L31.528,112.236v287.528L256,512l224.472-112.236V112.236L256,0z M234.277,452.564L74.974,372.913V160.81 l159.303,79.651V452.564z M101.826,125.662L256,48.576l154.174,77.087L256,202.749L101.826,125.662z M437.026,372.913 l-159.303,79.651V240.461l159.303-79.651V372.913z" style="fill: rgb(252, 0, 0);"/>
    </g>
  </g>
  <g transform="matrix(0.208129, 0, 0, 0.208129, -0.000005, 0)"/>
  <g transform="matrix(0.208129, 0, 0, 0.208129, -0.000005, 0)"/>
  <g transform="matrix(0.208129, 0, 0, 0.208129, -0.000005, 0)"/>
  <g transform="matrix(0.208129, 0, 0, 0.208129, -0.000005, 0)"/>
  <g transform="matrix(0.208129, 0, 0, 0.208129, -0.000005, 0)"/>
  <g transform="matrix(0.208129, 0, 0, 0.208129, -0.000005, 0)"/>
  <g transform="matrix(0.208129, 0, 0, 0.208129, -0.000005, 0)"/>
  <g transform="matrix(0.208129, 0, 0, 0.208129, -0.000005, 0)"/>
  <g transform="matrix(0.208129, 0, 0, 0.208129, -0.000005, 0)"/>
  <g transform="matrix(0.208129, 0, 0, 0.208129, -0.000005, 0)"/>
  <g transform="matrix(0.208129, 0, 0, 0.208129, -0.000005, 0)"/>
  <g transform="matrix(0.208129, 0, 0, 0.208129, -0.000005, 0)"/>
  <g transform="matrix(0.208129, 0, 0, 0.208129, -0.000005, 0)"/>
  <g transform="matrix(0.208129, 0, 0, 0.208129, -0.000005, 0)"/>
  <g transform="matrix(0.208129, 0, 0, 0.208129, -0.000005, 0)"/>
</svg>