<?xml version="1.0" encoding="utf-8"?>
<svg viewBox="0 0 0 0" xmlns="http://www.w3.org/2000/svg" xmlns:bx="https://boxy-svg.com">
  <title>medical-bottle-flat</title>
  <path d="M 21.873 112.302 L 3.125 112.302 C 1.4 112.302 0 110.902 0 109.177 L 0 52.928 C 0 51.203 1.4 49.802 3.125 49.802 C 24.38 49.802 35.612 56.965 36.08 57.271 C 37.199 58.003 37.73 59.365 37.398 60.659 L 24.899 109.945 C 24.555 111.332 23.306 112.302 21.873 112.302 Z M 6.249 106.051 L 19.443 106.051 L 30.743 61.49 C 27.23 59.803 18.942 56.578 6.249 56.108 Z" bx:origin="0 -0.796832"/>
  <path d="M 81.248 124.801 C 66.498 124.801 37.98 112.402 22.293 105.001 C 20.73 104.27 20.061 102.401 20.799 100.846 C 21.53 99.277 23.399 98.614 24.956 99.352 C 37.205 105.127 67.211 118.551 81.248 118.551 C 96.453 118.551 132.278 100.696 142.583 95.389 C 140.959 93.265 137.602 90.427 131.246 90.427 C 125.477 90.427 118.164 92.732 111.09 94.97 C 103.572 97.339 95.79 99.802 89.06 99.802 C 76.16 99.802 59.022 93.626 58.304 93.364 C 56.679 92.777 55.842 90.983 56.435 89.357 C 57.023 87.733 58.823 86.902 60.441 87.49 C 60.605 87.551 77.267 93.551 89.06 93.551 C 94.829 93.551 102.14 91.246 109.215 89.008 C 116.733 86.639 124.515 84.176 131.246 84.176 C 145.834 84.176 149.677 95.221 149.84 95.689 C 150.32 97.133 149.69 98.714 148.346 99.439 C 146.402 100.463 100.559 124.801 81.248 124.801 Z" bx:origin="-0.15829 -2.072025"/>
  <path d="M 103.122 97.238 C 101.397 97.238 99.996 95.839 99.996 94.114 L 99.996 90.989 C 99.996 86.627 97.053 82.889 92.847 81.914 L 32.517 67.346 C 30.836 66.94 29.805 65.252 30.212 63.571 C 30.617 61.889 32.312 60.896 33.986 61.265 L 94.29 75.827 C 101.322 77.471 106.247 83.708 106.247 90.989 L 106.247 94.114 C 106.247 95.839 104.847 97.238 103.122 97.238 Z" bx:origin="-0.395714 -1.697329"/>
  <g transform="matrix(0.13988, 0, 0, 0.13988, 74.817963, 0.00002)" bx:origin="-1.080352 0">
    <rect style="stroke: rgb(0, 0, 0); fill: rgb(61, 61, 61); stroke-width: 35.7449px;" x="-151.019" y="1273.594" width="350.571" height="230.756" rx="35.745" ry="35.745" transform="matrix(0.173647, 0.984808, -0.984808, 0.173647, 1509.956543, -34.333702)"/>
    <rect style="stroke: rgb(0, 0, 0); fill: rgb(61, 61, 61); stroke-width: 35.7449px;" x="-151.019" y="1273.593" width="350.571" height="230.756" rx="35.745" ry="35.745" transform="matrix(-0.173648, 0.984808, -0.984808, -0.173648, 1653.730835, 483.550964)"/>
  </g>
</svg>