<?xml version="1.0" encoding="utf-8"?>
<svg viewBox="0 0 0 0" xmlns="http://www.w3.org/2000/svg" xmlns:bx="https://boxy-svg.com">
  <g transform="matrix(1, 0, 0, 1, 34.181015, 87.253645)"/>
  <g transform="matrix(1, 0, 0, 1, 34.181015, 87.253645)"/>
  <g transform="matrix(1, 0, 0, 1, 34.181015, 87.253645)"/>
  <g transform="matrix(1, 0, 0, 1, 34.181015, 87.253645)"/>
  <g transform="matrix(1, 0, 0, 1, 34.181015, 87.253645)"/>
  <g transform="matrix(1, 0, 0, 1, 34.181015, 87.253645)"/>
  <g transform="matrix(1, 0, 0, 1, 34.181015, 87.253645)"/>
  <g transform="matrix(1, 0, 0, 1, 34.181015, 87.253645)"/>
  <g transform="matrix(1, 0, 0, 1, 34.181015, 87.253645)"/>
  <g transform="matrix(1, 0, 0, 1, 34.181015, 87.253645)"/>
  <g transform="matrix(1, 0, 0, 1, 34.181015, 87.253645)"/>
  <g transform="matrix(1, 0, 0, 1, 34.181015, 87.253645)"/>
  <g transform="matrix(1, 0, 0, 1, 34.181015, 87.253645)"/>
  <g transform="matrix(1, 0, 0, 1, 34.181015, 87.253645)"/>
  <g transform="matrix(1, 0, 0, 1, 34.181015, 87.253645)"/>
  <g transform="matrix(0.341797, 0, 0, 0.341797, 0.000002, 0.000002)" bx:origin="0.5 0">
    <g>
      <path d="M 374.588 64.269 C 333.143 22.825 278.04 0 219.429 0 C 160.817 0 105.714 22.825 64.269 64.269 C 22.825 105.714 0 160.817 0 219.429 C 0 278.04 22.825 333.143 64.269 374.588 C 105.714 416.032 160.817 438.857 219.429 438.857 C 278.04 438.857 333.143 416.032 374.588 374.588 C 416.032 333.143 438.857 278.04 438.857 219.429 C 438.857 160.817 416.032 105.714 374.588 64.269 Z M 356.405 356.405 C 319.817 392.993 271.172 413.143 219.429 413.143 C 167.685 413.143 119.04 392.993 82.452 356.405 C 45.864 319.817 25.714 271.172 25.714 219.429 C 25.714 167.685 45.864 119.04 82.452 82.452 C 119.04 45.864 167.685 25.714 219.429 25.714 C 271.172 25.714 319.817 45.864 356.405 82.452 C 392.993 119.04 413.143 167.685 413.143 219.429 C 413.143 271.172 392.993 319.817 356.405 356.405 Z" style="stroke: rgb(0, 0, 0); stroke-width: 8.77714px;"/>
    </g>
  </g>
  <g transform="matrix(0.292969, 0, 0, 0.292969, 0.000002, 0.000002)" bx:origin="0.500002 -0.344456">
    <g>
      <path d="M 319.261 192.738 L 319.261 104.423 L 192.738 104.423 L 192.738 192.738 L 104.423 192.738 L 104.423 319.261 L 192.738 319.261 L 192.738 407.576 L 319.261 407.576 L 319.261 319.261 L 407.576 319.261 L 407.576 192.738 L 319.261 192.738 Z" style="stroke-width: 163.84px;"/>
    </g>
  </g>
  <g transform="matrix(0.341797, 0, 0, 0.341797, 0.000002, 0.000002)" bx:origin="0 0"/>
  <g transform="matrix(0.341797, 0, 0, 0.341797, 0.000002, 0.000002)" bx:origin="0 0"/>
  <g transform="matrix(0.341797, 0, 0, 0.341797, 0.000002, 0.000002)" bx:origin="0 0"/>
  <g transform="matrix(0.341797, 0, 0, 0.341797, 0.000002, 0.000002)" bx:origin="0 0"/>
  <g transform="matrix(0.341797, 0, 0, 0.341797, 0.000002, 0.000002)" bx:origin="0 0"/>
  <g transform="matrix(0.341797, 0, 0, 0.341797, 0.000002, 0.000002)" bx:origin="0 0"/>
  <g transform="matrix(0.341797, 0, 0, 0.341797, 0.000002, 0.000002)" bx:origin="0 0"/>
  <g transform="matrix(0.341797, 0, 0, 0.341797, 0.000002, 0.000002)" bx:origin="0 0"/>
  <g transform="matrix(0.341797, 0, 0, 0.341797, 0.000002, 0.000002)" bx:origin="0 0"/>
  <g transform="matrix(0.341797, 0, 0, 0.341797, 0.000002, 0.000002)" bx:origin="0 0"/>
  <g transform="matrix(0.341797, 0, 0, 0.341797, 0.000002, 0.000002)" bx:origin="0 0"/>
  <g transform="matrix(0.341797, 0, 0, 0.341797, 0.000002, 0.000002)" bx:origin="0 0"/>
  <g transform="matrix(0.341797, 0, 0, 0.341797, 0.000002, 0.000002)" bx:origin="0 0"/>
  <g transform="matrix(0.341797, 0, 0, 0.341797, 0.000002, 0.000002)" bx:origin="0 0"/>
  <g transform="matrix(0.341797, 0, 0, 0.341797, 0.000002, 0.000002)" bx:origin="0 0"/>
</svg>