<?xml version="1.0" encoding="utf-8"?>
<svg viewBox="0 0 0 0" xmlns="http://www.w3.org/2000/svg" xmlns:bx="https://boxy-svg.com">
  <g transform="matrix(0.973151, 0, 0, 0.973151, -192.635132, -122.092461)" bx:origin="-0.000001 0"/>
  <g transform="matrix(1, 0, 0, 1, 112.240995, -12.060174)"/>
  <g transform="matrix(1, 0, 0, 1, 112.240995, -12.060174)"/>
  <g transform="matrix(1, 0, 0, 1, 112.240995, -12.060174)"/>
  <g transform="matrix(1, 0, 0, 1, 112.240995, -12.060174)"/>
  <g transform="matrix(1, 0, 0, 1, 112.240995, -12.060174)"/>
  <g transform="matrix(1, 0, 0, 1, 112.240995, -12.060174)"/>
  <g transform="matrix(1, 0, 0, 1, 112.240995, -12.060174)"/>
  <g transform="matrix(1, 0, 0, 1, 112.240995, -12.060174)"/>
  <g transform="matrix(1, 0, 0, 1, 112.240995, -12.060174)"/>
  <g transform="matrix(1, 0, 0, 1, 112.240995, -12.060174)"/>
  <g transform="matrix(1, 0, 0, 1, 112.240995, -12.060174)"/>
  <g transform="matrix(1, 0, 0, 1, 112.240995, -12.060174)"/>
  <g transform="matrix(1, 0, 0, 1, 112.240995, -12.060174)"/>
  <g transform="matrix(1, 0, 0, 1, 112.240995, -12.060174)"/>
  <g transform="matrix(1, 0, 0, 1, 112.240995, -12.060174)"/>
  <g id="XMLID_1145_" transform="matrix(1, 0, 0, 1, 320.152802, -121.929428)" bx:origin="0 0">
    <g>
      <g>
        <g transform="matrix(0.850017, 0, 0, 0.850017, -48.01741, 18.287317)">
          <g transform="matrix(1, 0, 0, 1, -419.781982, 113.001892)">
            <g transform="matrix(0.292969, 0, 0, 0.292969, 112.680412, 14.265083)">
              <g transform="matrix(1, 0, 0, 1, 0.621494, -0.621494)">
                <g transform="matrix(0.970296, -0.241922, 0.241922, 0.970296, -54.327827, 69.536346)">
                  <path d="M 505.152 44.717 C 500.725 40.291 494.844 37.855 488.59 37.855 C 482.336 37.855 476.453 40.293 472.028 44.717 L 359.781 156.965 C 358.401 156.024 356.762 155.506 355.068 155.506 C 352.85 155.506 350.723 156.387 349.152 157.956 L 318.097 189.011 L 280.858 151.772 L 291.908 140.722 C 303.646 128.981 303.646 109.878 291.908 98.138 C 280.167 86.398 261.064 86.398 249.324 98.138 L 237.4 110.062 C 233.306 107.876 228.713 106.716 223.941 106.716 C 216.292 106.716 209.102 109.695 203.694 115.103 L 8.387 310.411 C 2.978 315.819 0 323.011 0 330.658 C 0 338.306 2.979 345.497 8.387 350.905 L 123.254 465.772 C 128.836 471.354 136.169 474.146 143.501 474.146 C 150.834 474.146 158.166 471.356 163.748 465.772 L 364.097 263.679 C 366.283 259.585 367.443 254.991 367.443 250.22 C 367.443 243.427 365.089 236.999 360.775 231.857 L 391.914 200.718 C 394.806 197.826 395.132 193.347 392.904 190.09 L 505.152 77.839 C 514.283 68.707 514.283 53.849 505.152 44.717 Z M 261.155 109.97 C 266.371 104.753 274.862 104.753 280.078 109.969 C 285.297 115.186 285.297 123.677 280.078 128.895 L 269.029 139.945 L 250.105 121.021 L 261.155 109.97 Z M 151.918 453.943 C 147.276 458.583 139.724 458.584 135.083 453.943 L 20.216 339.075 C 17.968 336.828 16.73 333.839 16.73 330.658 C 16.73 327.477 17.968 324.488 20.216 322.24 L 215.524 126.933 C 217.772 124.685 220.761 123.447 223.941 123.447 C 227.121 123.447 230.111 124.685 232.359 126.933 L 347.226 241.8 C 347.227 241.8 347.227 241.8 347.227 241.8 C 349.475 244.048 350.713 247.037 350.713 250.217 C 350.713 253.397 349.475 256.387 347.225 258.635 L 151.918 453.943 Z M 349.027 219.941 L 329.926 200.84 L 355.067 175.698 L 374.169 194.799 L 349.027 219.941 Z M 493.322 66.01 L 381.18 178.152 L 371.717 168.689 L 483.859 56.546 C 485.125 55.281 486.804 54.584 488.59 54.584 C 490.376 54.584 492.055 55.281 493.321 56.547 C 495.932 59.156 495.932 63.402 493.322 66.01 Z" style="fill: rgb(255, 255, 255);"/>
                  <path d="M 303.381 243.334 L 230.826 170.779 C 227.559 167.511 222.263 167.512 218.997 170.779 C 215.73 174.046 215.73 179.342 218.997 182.608 L 291.551 255.163 C 293.185 256.797 295.325 257.613 297.467 257.613 C 299.606 257.613 301.747 256.797 303.381 255.163 C 306.648 251.896 306.648 246.599 303.381 243.334 Z" style="fill: rgb(255, 255, 255);"/>
                  <path d="M 282.477 264.239 L 209.92 191.684 C 206.653 188.417 201.357 188.417 198.091 191.684 C 194.824 194.951 194.824 200.247 198.091 203.513 L 270.646 276.068 C 272.28 277.701 274.42 278.518 276.562 278.518 C 278.702 278.518 280.844 277.702 282.478 276.068 C 285.744 272.801 285.744 267.504 282.477 264.239 Z" style="fill: rgb(255, 255, 255);"/>
                  <path d="M 261.57 285.145 L 189.014 212.59 C 185.747 209.323 180.451 209.323 177.185 212.59 C 173.918 215.857 173.918 221.153 177.185 224.419 L 249.74 296.974 C 251.373 298.607 253.514 299.424 255.654 299.424 C 257.794 299.424 259.936 298.608 261.57 296.974 C 264.837 293.707 264.837 288.41 261.57 285.145 Z" style="fill: rgb(255, 255, 255);"/>
                </g>
              </g>
            </g>
            <g>
              <g transform="matrix(0.292969, 0, 0, 0.292969, 112.680412, 14.265083)">
                <g/>
              </g>
              <g transform="matrix(0.292969, 0, 0, 0.292969, 112.680412, 14.265083)">
                <g/>
              </g>
              <g transform="matrix(0.292969, 0, 0, 0.292969, 112.680412, 14.265083)">
                <g/>
              </g>
            </g>
          </g>
          <g transform="matrix(1, 0, 0, 1, -0.368838, -12.909047)">
            <path id="XMLID_1334_" d="M -191.169 198.937 C -192.102 198.004 -193.615 198.004 -194.548 198.937 C -195.481 199.87 -195.481 201.383 -194.548 202.316 C -192.593 204.272 -191.516 206.872 -191.516 209.637 C -191.516 212.402 -192.593 215.002 -194.548 216.958 C -195.481 217.89 -195.482 219.403 -194.548 220.337 C -194.082 220.804 -193.471 221.036 -192.859 221.036 C -192.247 221.036 -191.636 220.803 -191.17 220.337 C -188.311 217.479 -186.737 213.679 -186.737 209.637 C -186.737 205.595 -188.311 201.795 -191.169 198.937 Z" style="fill: rgb(255, 255, 255);"/>
            <path id="XMLID_1335_" d="M -183.94 191.708 C -184.873 190.775 -186.386 190.775 -187.32 191.708 C -188.252 192.641 -188.252 194.154 -187.32 195.087 C -183.433 198.973 -181.293 204.141 -181.293 209.637 C -181.293 215.133 -183.433 220.3 -187.32 224.187 C -188.252 225.12 -188.253 226.633 -187.32 227.565 C -186.853 228.032 -186.241 228.265 -185.63 228.265 C -185.018 228.265 -184.407 228.032 -183.941 227.565 C -179.152 222.776 -176.514 216.409 -176.514 209.637 C -176.514 202.865 -179.151 196.497 -183.94 191.708 Z" style="fill: rgb(255, 255, 255);"/>
            <path id="XMLID_1336_" d="M -177.569 185.337 C -178.501 184.404 -180.014 184.404 -180.947 185.337 C -181.881 186.27 -181.881 187.783 -180.947 188.716 C -175.359 194.304 -172.281 201.734 -172.281 209.637 C -172.281 217.54 -175.359 224.97 -180.948 230.559 C -181.881 231.491 -181.881 233.004 -180.948 233.937 C -180.481 234.404 -179.87 234.637 -179.258 234.637 C -178.647 234.637 -178.035 234.404 -177.569 233.937 C -171.077 227.447 -167.503 218.817 -167.502 209.638 C -167.502 200.458 -171.077 191.828 -177.569 185.337 Z" style="fill: rgb(255, 255, 255);"/>
          </g>
        </g>
      </g>
    </g>
  </g>
  <g transform="matrix(1, 0, 0, 1, 448.992633, -11.696722)"/>
  <g transform="matrix(1, 0, 0, 1, 448.992633, -11.696722)"/>
  <g transform="matrix(1, 0, 0, 1, 448.992633, -11.696722)"/>
  <g transform="matrix(1, 0, 0, 1, 448.992633, -11.696722)"/>
  <g transform="matrix(1, 0, 0, 1, 448.992633, -11.696722)"/>
  <g transform="matrix(1, 0, 0, 1, 448.992633, -11.696722)"/>
  <g transform="matrix(1, 0, 0, 1, 448.992633, -11.696722)"/>
  <g transform="matrix(1, 0, 0, 1, 448.992633, -11.696722)"/>
  <g transform="matrix(1, 0, 0, 1, 448.992633, -11.696722)"/>
  <g transform="matrix(1, 0, 0, 1, 448.992633, -11.696722)"/>
  <g transform="matrix(1, 0, 0, 1, 448.992633, -11.696722)"/>
  <g transform="matrix(1, 0, 0, 1, 448.992633, -11.696722)"/>
  <g transform="matrix(1, 0, 0, 1, 448.992633, -11.696722)"/>
  <g transform="matrix(1, 0, 0, 1, 448.992633, -11.696722)"/>
  <g transform="matrix(1, 0, 0, 1, 448.992633, -11.696722)"/>
</svg>