<?xml version="1.0" encoding="utf-8"?>
<svg viewBox="0 0 0 0" xmlns="http://www.w3.org/2000/svg" xmlns:bx="https://boxy-svg.com">
  <g transform="matrix(1, 0, 0, 1, 34.181015, 87.253645)">
    <polygon points="140.819 -54.256 90.127 -87.254 90.127 -68.204 40.03 -68.204 40.03 -40.307 90.127 -40.307 90.127 -21.258" bx:origin="-0.736304 0.000003"/>
    <path d="M -3.002 -85.435 C -20.194 -85.435 -34.181 -71.448 -34.181 -54.256 C -34.181 -37.064 -20.194 -23.077 -3.002 -23.077 C 14.19 -23.077 28.177 -37.064 28.177 -54.256 C 28.177 -71.448 14.19 -85.435 -3.002 -85.435 Z" bx:origin="0 -0.02917"/>
  </g>
  <g transform="matrix(1, 0, 0, 1, 34.181015, 87.253645)"/>
  <g transform="matrix(1, 0, 0, 1, 34.181015, 87.253645)"/>
  <g transform="matrix(1, 0, 0, 1, 34.181015, 87.253645)"/>
  <g transform="matrix(1, 0, 0, 1, 34.181015, 87.253645)"/>
  <g transform="matrix(1, 0, 0, 1, 34.181015, 87.253645)"/>
  <g transform="matrix(1, 0, 0, 1, 34.181015, 87.253645)"/>
  <g transform="matrix(1, 0, 0, 1, 34.181015, 87.253645)"/>
  <g transform="matrix(1, 0, 0, 1, 34.181015, 87.253645)"/>
  <g transform="matrix(1, 0, 0, 1, 34.181015, 87.253645)"/>
  <g transform="matrix(1, 0, 0, 1, 34.181015, 87.253645)"/>
  <g transform="matrix(1, 0, 0, 1, 34.181015, 87.253645)"/>
  <g transform="matrix(1, 0, 0, 1, 34.181015, 87.253645)"/>
  <g transform="matrix(1, 0, 0, 1, 34.181015, 87.253645)"/>
  <g transform="matrix(1, 0, 0, 1, 34.181015, 87.253645)"/>
  <g transform="matrix(1, 0, 0, 1, 34.181015, 87.253645)"/>
</svg>