<?xml version="1.0" encoding="utf-8"?>
<svg viewBox="0 0 37 37" xmlns="http://www.w3.org/2000/svg" xmlns:bx="https://boxy-svg.com">
  <circle style="stroke: rgb(4, 4, 4); fill: rgb(46, 96, 17); stroke-width: 0px;" cx="18.5" cy="18.5" r="19"/>
  <title id="title12433">Biohazard</title>
  <g id="layer1" transform="matrix(0.064886, 0, 0, 0.069149, -11.137355, -22.822132)" bx:origin="0.499997 0.5">
    <g id="g3513" transform="translate(19.52035,0)">
      <path id="path12348" transform="translate(206.06645,348.39844)" d="M 224.17188,3.3359375 A 125,125 0 0 0 106.41406,128.07812 a 125,125 0 0 0 99.78516,122.29102 25,25 0 0 1 -0.0254,-0.7207 25,25 0 0 1 20.36133,-24.54883 l 0,-17.98047 A 102.14286,102.14286 0 0 1 129.27148,105.2207 102.14286,102.14286 0 0 1 224.17188,3.3359375 Z m 17.43945,0.2519531 A 102.14286,102.14286 0 0 1 333.55859,105.2207 102.14286,102.14286 0 0 1 235.81055,207.20703 l 0,17.88867 a 25,25 0 0 1 20.36328,24.55274 25,25 0 0 1 -0.0488,0.95508 A 125,125 0 0 0 356.41406,128.07812 125,125 0 0 0 241.61133,3.5878906 Z" style="opacity: 1; fill-opacity: 1; stroke: none; stroke-width: 6; stroke-linecap: round; stroke-linejoin: bevel; stroke-miterlimit: 4; stroke-dasharray: none; stroke-dashoffset: 0; stroke-opacity: 1; fill: rgb(112, 190, 66);"/>
      <path id="path12366" transform="translate(206.06645,348.39844)" d="M 130.81641,187.06836 A 125,125 0 0 0 62.419922,203.67578 125,125 0 0 0 12.009766,365.34375 102.14286,102.14286 0 0 1 54.052734,234.89844 102.14286,102.14286 0 0 1 186.94336,262.42578 l 19.28906,-11.13476 a 25,25 0 0 1 -0.0586,-1.64258 25,25 0 0 1 11.69336,-21.15235 125,125 0 0 0 -87.05078,-41.42773 z m 77.89062,73.50391 -16.49609,9.52343 a 102.14286,102.14286 0 0 1 1.37109,2.19141 102.14286,102.14286 0 0 1 -37.38672,139.5293 A 102.14286,102.14286 0 0 1 20.5,380.55859 a 125,125 0 0 0 166.91992,39.625 125,125 0 0 0 55.68946,-148.5957 25,25 0 0 1 -11.93555,3.06055 25,25 0 0 1 -22.4668,-14.07617 z" style="opacity: 1; fill-opacity: 1; stroke: none; stroke-width: 6; stroke-linecap: round; stroke-linejoin: bevel; stroke-miterlimit: 4; stroke-dasharray: none; stroke-dashoffset: 0; stroke-opacity: 1; fill: rgb(112, 190, 66);"/>
      <path id="path12368" transform="translate(206.06645,348.39844)" d="m 340.33594,187.26562 a 125,125 0 0 0 -95.58008,41.42383 25,25 0 0 1 11.41797,20.95899 25,25 0 0 1 -0.082,1.6289 l 19.39648,11.19922 a 102.14286,102.14286 0 0 1 132.7656,-27.27539 102.14286,102.14286 0 0 1 40.77734,133.14453 125,125 0 0 0 -49.14453,-164.36914 125,125 0 0 0 -59.55078,-16.71094 z m -86.70703,73.30079 a 25,25 0 0 1 -22.45508,14.08203 25,25 0 0 1 -11.95508,-3.04492 125,125 0 0 0 55.66797,148.8789 125,125 0 0 0 165.21289,-37.17578 102.14286,102.14286 0 0 1 -133.99023,28.8125 102.14286,102.14286 0 0 1 -37.38477,-139.53125 102.14286,102.14286 0 0 1 1.55664,-2.4082 l -16.65234,-9.61328 z" style="opacity: 1; fill-opacity: 1; stroke: none; stroke-width: 6; stroke-linecap: round; stroke-linejoin: bevel; stroke-miterlimit: 4; stroke-dasharray: none; stroke-dashoffset: 0; stroke-opacity: 1; fill: rgb(112, 190, 66);"/>
      <path id="path3493" d="m 433.21918,482.19922 a 115,115 0 0 0 -74.75196,27.66602 95,95 0 0 0 25.00782,24.67968 80,80 0 0 1 49.74414,-17.3457 80,80 0 0 1 52.39258,19.61133 95,95 0 0 0 26.1289,-23.50977 115,115 0 0 0 -78.52148,-31.10156 z m -82.1543,34.56055 a 115,115 0 0 0 -28.52734,49.26172 105,105 0 0 1 33.91797,8.99023 80,80 0 0 1 19.52539,-33.58789 105,105 0 0 1 -24.91602,-24.66406 z m 167.7832,3.85742 a 105,105 0 0 1 -25.97656,23.42383 80,80 0 0 1 18.35742,35.69922 105,105 0 0 1 33.07422,-11.55664 115,115 0 0 0 -25.45508,-47.56641 z m -198.5664,55.25977 a 115,115 0 0 0 -2.0625,21.32226 115,115 0 0 0 82.46094,110.21875 95,95 0 0 0 7.33789,-34.36328 80,80 0 0 1 -54.79883,-75.85547 80,80 0 0 1 1.05273,-12.18359 95,95 0 0 0 -33.99023,-9.13867 z m 226.14453,2 a 95,95 0 0 0 -33.60352,12.5664 80,80 0 0 1 0.39649,6.75586 80,80 0 0 1 -46.00391,72.32227 95,95 0 0 0 -0.10156,2.02929 95,95 0 0 0 6.08984,33.32227 115,115 0 0 0 75.01563,-107.67383 115,115 0 0 0 -1.79297,-19.32226 z m -89.21875,95.54882 a 80,80 0 0 1 -23.98828,3.77344 80,80 0 0 1 -15.25781,-1.5 105,105 0 0 1 -7.50586,34.10352 115,115 0 0 0 22.76367,2.39648 115,115 0 0 0 30.54101,-4.25586 105,105 0 0 1 -6.55273,-34.51758 z" style="opacity: 1; fill-opacity: 1; stroke: none; stroke-width: 6; stroke-linecap: round; stroke-linejoin: bevel; stroke-miterlimit: 4; stroke-dasharray: none; stroke-dashoffset: 0; stroke-opacity: 1; fill: rgb(112, 190, 66);"/>
    </g>
  </g>
</svg>